<?xml version="1.0" encoding="UTF-8"?>
<svg width="821px" height="821px" viewBox="0 0 821 821" version="1.1" xmlns="http://www.w3.org/2000/svg" xmlns:xlink="http://www.w3.org/1999/xlink">
    <!-- Generator: Sketch 53.2 (72643) - https://sketchapp.com -->
    <title>Group 2</title>
    <desc>Created with Sketch.</desc>
    <g id="Page-1" stroke="none" stroke-width="1" fill="none" fill-rule="evenodd">
        <g id="Group-2">
            <g id="Group">
                <circle id="Oval" fill="#4B94D9" cx="410.5" cy="410.5" r="410.5"></circle>
                <g id="view" transform="translate(166.000000, 264.000000)" fill="#FFFFFF" fill-rule="nonzero">
                    <path d="M244.425,0.725 C151.025,0.725 66.325,51.825 3.825,134.825 C-1.275,141.625 -1.275,151.125 3.825,157.925 C66.325,241.025 151.025,292.125 244.425,292.125 C337.825,292.125 422.525,241.025 485.025,158.025 C490.125,151.225 490.125,141.725 485.025,134.925 C422.525,51.825 337.825,0.725 244.425,0.725 Z M251.125,249.025 C189.125,252.925 137.925,201.825 141.825,139.725 C145.025,88.525 186.525,47.025 237.725,43.825 C299.725,39.925 350.925,91.025 347.025,153.125 C343.725,204.225 302.225,245.725 251.125,249.025 Z M248.025,201.625 C214.625,203.725 187.025,176.225 189.225,142.825 C190.925,115.225 213.325,92.925 240.925,91.125 C274.325,89.025 301.925,116.525 299.725,149.925 C297.925,177.625 275.525,199.925 248.025,201.625 Z" id="Shape"></path>
                </g>
            </g>
        </g>
    </g>
</svg>